<svg xmlns="http://www.w3.org/2000/svg" viewBox="0 0 102.91 105.05">
  <title>hole</title>
  <g id="Layer_2" data-name="Layer 2">
    <g id="Layer_1-2" data-name="Layer 1">
      <path d="M75.19,18.81a16.3,16.3,0,0,0-7.62-5.93A25.69,25.69,0,0,0,58,11.2a62.33,62.33,0,0,0-9.74.9,44.48,44.48,0,0,0-9.44,2.54,24.71,24.71,0,0,0-8.2,5.22,22.35,22.35,0,0,0-3.13,3.73,24.71,24.71,0,0,0-2.37,4.27A31.64,31.64,0,0,0,23.23,47a48.91,48.91,0,0,0,7.83,17.78,65.73,65.73,0,0,0,6.13,7.6c.55.61,1.11,1.2,1.7,1.75l1.76,1.71C41.88,76.9,43.07,78,44.38,79A66.31,66.31,0,0,0,80.13,93.34a11.17,11.17,0,0,0,4.71-.66,9.36,9.36,0,0,0,3.76-2.86A21.5,21.5,0,0,0,92.44,81a54.91,54.91,0,0,0,1.46-9.63,64.78,64.78,0,0,0-.22-9.75c-1.36-13-6.35-25.38-13.32-36.35A80.48,80.48,0,0,0,68.13,10.14,58.91,58.91,0,0,0,60.57,4C57.91,2.24,54.91.74,51.73.86S45.55,2.36,42.8,4s-5.44,3.58-8,5.54a54.79,54.79,0,0,0-13.39,14,40,40,0,0,0-6.17,18.16A35.51,35.51,0,0,0,18.8,60.42a33.11,33.11,0,0,0,5.47,7.91,34.36,34.36,0,0,0,7.53,6,61.71,61.71,0,0,0,8.74,4.22c3,1.21,6.09,2.32,9.19,3.28a73.84,73.84,0,0,0,9.45,2.28,41.1,41.1,0,0,0,9.63.62,21.14,21.14,0,0,0,4.68-.88,17.6,17.6,0,0,0,4.26-2,21.84,21.84,0,0,0,6.52-6.87A29.22,29.22,0,0,0,87.8,66,50.5,50.5,0,0,0,89,56.43a64.82,64.82,0,0,0-1.86-19.26,33.22,33.22,0,0,0-3.81-8.79,35.87,35.87,0,0,0-6.22-7.32,91.5,91.5,0,0,0-7.56-6.13C66.9,13,64.28,11,61.56,9.27A45.09,45.09,0,0,0,53,4.83a24.56,24.56,0,0,0-9.34-1.62,26.35,26.35,0,0,0-17.08,7.58A37.74,37.74,0,0,0,17,27.25a34.45,34.45,0,0,0-1.59,9.44,20,20,0,0,0,.49,4.7,18.79,18.79,0,0,0,1.68,4.38,31,31,0,0,0,5.91,7.49c2.32,2.24,4.81,4.36,7.33,6.41a132.33,132.33,0,0,0,16,11.15,113.54,113.54,0,0,0,17.54,8.43l2.28.84,2.31.77a16.14,16.14,0,0,0,4.55,1,4.72,4.72,0,0,0,3.8-1.5,11.61,11.61,0,0,0,2.15-4,52.5,52.5,0,0,0,2.83-19,80.12,80.12,0,0,0-3-19.13A63.48,63.48,0,0,0,71.6,20.55,41.09,41.09,0,0,0,58,7.28,29.51,29.51,0,0,0,39.68,3.17a24.32,24.32,0,0,0-16.32,8.61c-3.93,5-5.5,11.51-5.2,17.84s2.53,12.57,5.55,18.25A110.47,110.47,0,0,0,34.59,64,132.38,132.38,0,0,0,47.83,78.21a53.19,53.19,0,0,0,7.57,6C58.1,85.83,61,87.42,64,87.63a6.92,6.92,0,0,0,4.16-1.06,13.71,13.71,0,0,0,3.34-3.13,35.6,35.6,0,0,0,4.87-8.19,52.08,52.08,0,0,0,3.83-18.78,128.81,128.81,0,0,0-1.11-19.41,57.27,57.27,0,0,0-1.94-9.44,39.76,39.76,0,0,0-3.92-8.73A69.53,69.53,0,0,0,67.63,11a29.62,29.62,0,0,0-6.85-6.53,16.78,16.78,0,0,0-8.84-2.55,49,49,0,0,0-9.56.8,44.74,44.74,0,0,0-17.72,7A28.82,28.82,0,0,0,13.4,24.6,34.46,34.46,0,0,0,13,43.44a46.89,46.89,0,0,0,8.59,17,66.7,66.7,0,0,0,6.46,7.19A71.88,71.88,0,0,0,35.42,74a42.64,42.64,0,0,0,17.27,8c6.22,1.14,12.9.49,18.37-2.63s9.59-8.36,12.37-14.08a42.59,42.59,0,0,0,4.34-18.5A35.17,35.17,0,0,0,83,28.47C79.68,23,74.86,18.59,69.82,14.53S59.42,6.7,53.38,4.72a23.42,23.42,0,0,0-9.26-1.17,23.87,23.87,0,0,0-4.58.94,27.6,27.6,0,0,0-4.33,1.87C29.63,9.4,25,14.08,20.84,19S13,29.29,10.89,35.32,8.43,48,10.8,53.83s6.85,10.7,11.66,15A120.18,120.18,0,0,0,37.89,80.6,54.87,54.87,0,0,0,46.45,85a36.09,36.09,0,0,0,9.18,2.51,17.21,17.21,0,0,0,9.11-1.19,23.36,23.36,0,0,0,7.48-5.61,64.06,64.06,0,0,0,6-7.59,82.16,82.16,0,0,0,5-8.31c2.9-5.74,5.52-11.8,6.22-18.11S88.29,34,85.23,28.41a67.05,67.05,0,0,0-11.9-15.15,35.52,35.52,0,0,0-7.5-5.86,16.22,16.22,0,0,0-8.92-2.1,30.69,30.69,0,0,0-9.22,2.19,49.69,49.69,0,0,0-8.61,4.28A67.9,67.9,0,0,0,24.39,24.25,64.81,64.81,0,0,0,13.51,40.14a33.59,33.59,0,0,0-2.77,18.64,41.24,41.24,0,0,0,2.36,9.27,48.81,48.81,0,0,0,4.4,8.53,45.75,45.75,0,0,0,6,7.49,45.56,45.56,0,0,0,7.37,6.15,29.18,29.18,0,0,0,8.59,4,20.51,20.51,0,0,0,9.31.34,18.78,18.78,0,0,0,8.26-4.22,73.51,73.51,0,0,0,6.88-6.8A121.33,121.33,0,0,0,75.85,68.16c1.79-2.71,3.46-5.5,5-8.34a92.44,92.44,0,0,0,4.27-8.72,39.45,39.45,0,0,0,2.71-9.18,24.37,24.37,0,0,0-.32-9.4c-1.48-6.17-5.31-11.63-10.08-15.86a42.18,42.18,0,0,0-7.82-5.56,27.7,27.7,0,0,0-8.88-3.24,25.86,25.86,0,0,0-9.43.41,46.87,46.87,0,0,0-9.11,3,51.08,51.08,0,0,0-15.7,11,85,85,0,0,0-11.7,15.44,48.69,48.69,0,0,0-4.29,8.61,21.85,21.85,0,0,0-1.41,9.27,23.82,23.82,0,0,0,2.75,9,46.65,46.65,0,0,0,5.34,8c8.07,10,19,18,31.46,21.55a37.31,37.31,0,0,0,9.45,1.58,24.33,24.33,0,0,0,9.33-1.56A34.32,34.32,0,0,0,82.38,82.59a77.76,77.76,0,0,0,9.35-17,52.1,52.1,0,0,0,2.94-9.2,27.9,27.9,0,0,0,.47-9.5,19.87,19.87,0,0,0-3.43-8.75,36.22,36.22,0,0,0-6.55-7C80.26,27,74.71,23.36,68.43,22s-12.86-1.08-19.32-.56a69.43,69.43,0,0,0-18.9,4.22,61.28,61.28,0,0,0-16.52,10Q11.8,37.22,10,38.84C8.77,39.93,7.56,41,6.47,42.17A19.54,19.54,0,0,0,3.6,46a9.2,9.2,0,0,0-1.27,4.37c-.05,3.07,2,5.84,3.81,8.45A50.13,50.13,0,0,0,12.6,66,119.31,119.31,0,0,0,28.17,77.71c5.41,3.59,11,7,17.29,8.66a30.83,30.83,0,0,0,18.92-1.3A48.14,48.14,0,0,0,80.44,74.43,79.77,79.77,0,0,0,87,67.24a46.29,46.29,0,0,0,5.32-8.09A29.13,29.13,0,0,0,95,40.39a32.93,32.93,0,0,0-8.74-16.95,37.54,37.54,0,0,0-16.54-9.72,42.93,42.93,0,0,0-9.56-1.59,44.89,44.89,0,0,0-9.68.66,51.56,51.56,0,0,0-18.06,7A61.72,61.72,0,0,0,17.73,32.52,81.29,81.29,0,0,0,7.05,48.83a38.72,38.72,0,0,0-3.43,9.09,24,24,0,0,0-.06,9.63A31.37,31.37,0,0,0,13,84.19,51,51,0,0,0,29.52,94.46,35.86,35.86,0,0,0,39,96.75a24,24,0,0,0,9.63-.94,30.11,30.11,0,0,0,8.55-4.6A93.82,93.82,0,0,0,64.69,85a96.5,96.5,0,0,0,13-14.62A86.69,86.69,0,0,0,83,62.13a43.37,43.37,0,0,0,4-8.93,28.13,28.13,0,0,0,1-4.79l.11-1.22,0-1.22c0-.81,0-1.63-.08-2.44a31.35,31.35,0,0,0-2.39-9.46C83.12,28,79.28,22.64,75.43,17.38,79.3,22.63,83.16,28,85.67,34.05a31.1,31.1,0,0,1,2.43,9.47A22.29,22.29,0,0,1,88.19,46l0,1.23-.1,1.22a29.12,29.12,0,0,1-1,4.81,44,44,0,0,1-3.93,9,90.43,90.43,0,0,1-5.31,8.25,96.89,96.89,0,0,1-13,14.69,90.89,90.89,0,0,1-7.54,6.28,30.27,30.27,0,0,1-8.62,4.67,24.39,24.39,0,0,1-9.75,1,36,36,0,0,1-9.55-2.29,52.26,52.26,0,0,1-8.81-4.35,46.19,46.19,0,0,1-7.83-6A31.79,31.79,0,0,1,3.08,67.64a24.29,24.29,0,0,1,0-9.83,39.13,39.13,0,0,1,3.44-9.23,82.13,82.13,0,0,1,10.7-16.46A62.68,62.68,0,0,1,32,19.2a52.64,52.64,0,0,1,18.28-7.14,45.79,45.79,0,0,1,9.85-.69A43.45,43.45,0,0,1,69.91,13a38.3,38.3,0,0,1,16.93,9.88,33.78,33.78,0,0,1,9,17.38A30.1,30.1,0,0,1,93.2,59.59a47.93,47.93,0,0,1-5.41,8.28,81.86,81.86,0,0,1-6.64,7.3,49.17,49.17,0,0,1-16.4,10.89,31.9,31.9,0,0,1-19.57,1.37C38.71,85.75,33,82.25,27.55,78.65A120.09,120.09,0,0,1,11.81,66.82a50.79,50.79,0,0,1-6.62-7.35c-.49-.67-1-1.35-1.41-2A23,23,0,0,1,2.5,55.27a9.56,9.56,0,0,1,0-9.91,21.08,21.08,0,0,1,3-4C6.72,40.12,8,39,9.17,37.93s2.47-2.17,3.74-3.21A62.47,62.47,0,0,1,29.75,24.45,71.21,71.21,0,0,1,49,20.11c3.28-.29,6.56-.47,9.86-.46a45.79,45.79,0,0,1,9.88,1A33.13,33.13,0,0,1,78,24.35a54.25,54.25,0,0,1,8.06,5.78,37.88,37.88,0,0,1,6.8,7.27,21.14,21.14,0,0,1,3.68,9.33,29.37,29.37,0,0,1-.47,10,54.25,54.25,0,0,1-3,9.46,78.84,78.84,0,0,1-9.51,17.3A35.82,35.82,0,0,1,68,95.65a25.9,25.9,0,0,1-9.89,1.67,38.79,38.79,0,0,1-9.84-1.62c-12.81-3.6-24-11.76-32.29-22a48.53,48.53,0,0,1-5.54-8.27,25.67,25.67,0,0,1-2.94-9.62A23.54,23.54,0,0,1,9,45.83a50,50,0,0,1,4.42-8.92A86.09,86.09,0,0,1,25.31,21.15a52.73,52.73,0,0,1,16.2-11.4A48.55,48.55,0,0,1,51,6.6,27.42,27.42,0,0,1,61,6.17,28.9,28.9,0,0,1,70.47,9.6a44.6,44.6,0,0,1,8.14,5.77c5,4.41,9,10.13,10.61,16.75a25.88,25.88,0,0,1,.35,10.07,40.92,40.92,0,0,1-2.81,9.58,93.73,93.73,0,0,1-4.35,8.89Q80,65,77.33,69.13A125.66,125.66,0,0,1,65.24,84.72a76.31,76.31,0,0,1-7.06,7,20.7,20.7,0,0,1-9,4.59A22.17,22.17,0,0,1,39,95.93a30.61,30.61,0,0,1-9.13-4.21,47.94,47.94,0,0,1-7.67-6.38A47.55,47.55,0,0,1,16,77.57a49.88,49.88,0,0,1-4.58-8.86A43.09,43.09,0,0,1,8.94,59a35.42,35.42,0,0,1,2.9-19.63A66.49,66.49,0,0,1,23,23,69.77,69.77,0,0,1,38.11,10.19,51.51,51.51,0,0,1,47,5.75a32.05,32.05,0,0,1,9.79-2.31,18,18,0,0,1,9.9,2.32,36.82,36.82,0,0,1,7.92,6.16A68.76,68.76,0,0,1,86.89,27.51a38.49,38.49,0,0,1,3.67,9.32,29.35,29.35,0,0,1,.7,10.06,41.76,41.76,0,0,1-2.39,9.72,79.93,79.93,0,0,1-4,9.07,83.08,83.08,0,0,1-5.08,8.51A66.48,66.48,0,0,1,73.62,82a25.41,25.41,0,0,1-8.11,6.06,19.06,19.06,0,0,1-10.1,1.34,38.1,38.1,0,0,1-9.68-2.63,57,57,0,0,1-8.87-4.54,121.43,121.43,0,0,1-15.7-12,62.44,62.44,0,0,1-7-7.1A32.51,32.51,0,0,1,9,54.56a25.42,25.42,0,0,1-1.76-10A32.68,32.68,0,0,1,9,34.68c2.19-6.39,6.06-12,10.31-17s9-9.85,14.94-13.1a29.74,29.74,0,0,1,4.67-2,25.61,25.61,0,0,1,5-1A25.48,25.48,0,0,1,54,2.83C60.44,5,65.94,8.9,71.05,13s10.12,8.68,13.6,14.47A37.12,37.12,0,0,1,89.72,46.7a44.46,44.46,0,0,1-4.55,19.35,39.43,39.43,0,0,1-5.43,8.42A29,29,0,0,1,72,81,26.08,26.08,0,0,1,62.4,84.1a32.33,32.33,0,0,1-10.06-.31,44.3,44.3,0,0,1-18.05-8.31A76.13,76.13,0,0,1,26.74,69a70.58,70.58,0,0,1-6.63-7.4A48.92,48.92,0,0,1,11.19,43.9,36.37,36.37,0,0,1,11.61,24,30.74,30.74,0,0,1,23.6,8.2,46.5,46.5,0,0,1,42.06.9,50,50,0,0,1,52,.08a21.84,21.84,0,0,1,5.05.73,17.08,17.08,0,0,1,4.71,2.11,31.44,31.44,0,0,1,7.29,6.93A71.33,71.33,0,0,1,74.79,18a41.3,41.3,0,0,1,4.09,9.12,59.53,59.53,0,0,1,2,9.74A131,131,0,0,1,82,56.53,54,54,0,0,1,78,76a37.78,37.78,0,0,1-5.13,8.61,15.57,15.57,0,0,1-3.79,3.52,8.67,8.67,0,0,1-5.2,1.32,15.1,15.1,0,0,1-5-1.34,35.5,35.5,0,0,1-4.42-2.4,55,55,0,0,1-7.82-6.15A133.94,133.94,0,0,1,33.22,65.05a110.93,110.93,0,0,1-11-16.36c-3.1-5.83-5.45-12.25-5.74-19a31.71,31.71,0,0,1,1.07-10,25,25,0,0,1,4.51-9A26,26,0,0,1,39.48,1.47,31.22,31.22,0,0,1,58.81,5.8,42.81,42.81,0,0,1,73,19.63,64.92,64.92,0,0,1,80.9,37.78a81.67,81.67,0,0,1,3,19.54,54.32,54.32,0,0,1-3,19.57,13,13,0,0,1-2.5,4.55A6.23,6.23,0,0,1,76.17,83a7.13,7.13,0,0,1-2.72.42,17.2,17.2,0,0,1-5-1.09l-2.34-.78-2.32-.86a114.22,114.22,0,0,1-17.75-8.57A133.92,133.92,0,0,1,29.9,60.84c-2.54-2.09-5-4.21-7.41-6.52a32.21,32.21,0,0,1-6.17-7.86,20.44,20.44,0,0,1-1.81-4.74,21.47,21.47,0,0,1-.52-5,35.78,35.78,0,0,1,1.67-9.83,39.15,39.15,0,0,1,10-17.06,27.73,27.73,0,0,1,18-7.94,25.59,25.59,0,0,1,9.85,1.73,45.73,45.73,0,0,1,8.81,4.58c2.77,1.8,5.4,3.76,8,5.72A94.29,94.29,0,0,1,78,20.11a37.39,37.39,0,0,1,6.42,7.59,34.44,34.44,0,0,1,3.94,9.14,66,66,0,0,1,1.87,19.63A51.91,51.91,0,0,1,89,66.31a30.92,30.92,0,0,1-3.7,9.24,23,23,0,0,1-6.89,7.22A18.86,18.86,0,0,1,73.84,85a22.06,22.06,0,0,1-4.94.92,42,42,0,0,1-9.9-.64,74.65,74.65,0,0,1-9.6-2.34c-3.14-1-6.22-2.1-9.27-3.32a62.83,62.83,0,0,1-8.89-4.32,35.29,35.29,0,0,1-7.75-6.19,37.56,37.56,0,0,1-3.12-3.88,37.55,37.55,0,0,1-2.51-4.29,36.4,36.4,0,0,1-3.66-19.3A40.87,40.87,0,0,1,20.55,23,55.74,55.74,0,0,1,34.22,8.84c2.63-2,5.32-3.84,8.13-5.57S48.28.09,51.71,0A12.24,12.24,0,0,1,56.65,1,23.4,23.4,0,0,1,61,3.34a59.61,59.61,0,0,1,7.65,6.23A81.11,81.11,0,0,1,81,24.9C88,36,93,48.49,94.29,61.58a64.65,64.65,0,0,1,.18,9.84A54.24,54.24,0,0,1,93,81.15a22,22,0,0,1-4,9,9.78,9.78,0,0,1-4,3,11.51,11.51,0,0,1-4.92.68,66.77,66.77,0,0,1-36-14.53c-1.31-1-2.5-2.12-3.74-3.2l-1.76-1.71c-.59-.57-1.16-1.16-1.7-1.77A65.4,65.4,0,0,1,30.81,65,49,49,0,0,1,23,47.05a31.92,31.92,0,0,1,1.94-19.27,26,26,0,0,1,2.4-4.28,22.25,22.25,0,0,1,3.17-3.75,25.06,25.06,0,0,1,8.25-5.23A44.84,44.84,0,0,1,48.22,12,62.66,62.66,0,0,1,58,11.14a25.82,25.82,0,0,1,9.61,1.71A16.26,16.26,0,0,1,75.19,18.81Z"/>
      <circle cx="48.6" cy="52.19" r="45.24" style="fill: #fff;opacity: 0.2"/>
      <circle cx="48.6" cy="53.57" r="39.78"/>
      <path d="M49.92,14.84a16.37,16.37,0,0,0-9.65-.35,25.62,25.62,0,0,0-8.75,4.26,62.7,62.7,0,0,0-7.38,6.44A44.94,44.94,0,0,0,18,32.77a24.89,24.89,0,0,0-3.58,9A23.31,23.31,0,0,0,14,46.66a25.5,25.5,0,0,0,.58,4.85A31.7,31.7,0,0,0,24.3,68.12,49,49,0,0,0,41.06,78a65.26,65.26,0,0,0,9.42,2.57c.8.17,1.6.32,2.41.43l2.42.35c1.62.14,3.24.35,4.87.38a66.36,66.36,0,0,0,37.38-9.31,11.41,11.41,0,0,0,3.44-3.3,9.53,9.53,0,0,0,1.38-4.51,21.47,21.47,0,0,0-2.06-9.38,53.74,53.74,0,0,0-4.45-8.67A64.16,64.16,0,0,0,90,38.74C81.29,29,70,21.88,57.9,17.07A80.17,80.17,0,0,0,39.12,12a59.54,59.54,0,0,0-9.71-.53c-3.2.11-6.51.65-9,2.61S16.26,18.86,15,21.82,12.69,27.91,11.74,31A54.57,54.57,0,0,0,9.05,50.16,40,40,0,0,0,14.69,68.5a34.44,34.44,0,0,0,23,16.3,34,34,0,0,0,9.61.45,61.2,61.2,0,0,0,9.56-1.7c3.15-.79,6.29-1.68,9.37-2.72a76.51,76.51,0,0,0,9-3.68A41.44,41.44,0,0,0,83.34,72a20.52,20.52,0,0,0,3.27-3.45,17.29,17.29,0,0,0,2.26-4.16A21.79,21.79,0,0,0,90.14,55a29.75,29.75,0,0,0-2.34-9.28,50.63,50.63,0,0,0-4.68-8.46A64.83,64.83,0,0,0,70.34,22.75a33.56,33.56,0,0,0-8.24-4.9,36.2,36.2,0,0,0-9.33-2.29A92.36,92.36,0,0,0,43.05,15c-3.26,0-6.52-.09-9.76.07a44.67,44.67,0,0,0-9.53,1.41,24.54,24.54,0,0,0-8.53,4.15A26.32,26.32,0,0,0,5.83,36.8,37.67,37.67,0,0,0,7.72,55.74,34.52,34.52,0,0,0,12,64.33a20.26,20.26,0,0,0,3.15,3.51A18.78,18.78,0,0,0,19,70.42,31.54,31.54,0,0,0,28.21,73c3.19.46,6.45.71,9.69.91a132,132,0,0,0,19.48-.33,113.23,113.23,0,0,0,19.15-3.43l2.34-.66,2.32-.72A15.72,15.72,0,0,0,85.46,67a4.7,4.7,0,0,0,2.21-3.45,11.77,11.77,0,0,0-.6-4.51,52.89,52.89,0,0,0-8.83-17.05A80.24,80.24,0,0,0,64.62,28.18,63.89,63.89,0,0,0,48,18.36,41,41,0,0,0,29.2,15.59,29.42,29.42,0,0,0,12,23,24.33,24.33,0,0,0,3.79,39.49C3.5,45.81,6.07,52,10,57s9.41,8.71,15.18,11.54a110.19,110.19,0,0,0,18.24,6.67A132.3,132.3,0,0,0,62.52,79a53.66,53.66,0,0,0,9.63.4c3.15-.24,6.46-.66,9-2.23a7,7,0,0,0,2.75-3.29,14.05,14.05,0,0,0,.88-4.49,35.76,35.76,0,0,0-.86-9.5A52.16,52.16,0,0,0,76,42.45,128.27,128.27,0,0,0,63.76,27.36a56.84,56.84,0,0,0-7.11-6.52,38.91,38.91,0,0,0-8.28-4.77,67.58,67.58,0,0,0-9.15-3.13,29.67,29.67,0,0,0-9.38-1.28,16.71,16.71,0,0,0-8.65,3.11A49,49,0,0,0,13.9,21,44.84,44.84,0,0,0,3.64,37.07a28.8,28.8,0,0,0-.42,18.65A34.48,34.48,0,0,0,13.94,71.21a47,47,0,0,0,17,8.79,66.92,66.92,0,0,0,9.44,2,70.8,70.8,0,0,0,9.64.79,42.42,42.42,0,0,0,18.65-3.66C74.34,76.46,79.37,72,82,66.28s2.88-12.39,1.78-18.66a42.62,42.62,0,0,0-7.31-17.54,35.32,35.32,0,0,0-14.57-12c-5.86-2.5-12.36-3.26-18.82-3.6s-13-.26-19.07,1.67a23.27,23.27,0,0,0-8.2,4.48,23.39,23.39,0,0,0-3.15,3.44,27.09,27.09,0,0,0-2.42,4.05C7.47,33.89,6.49,40.38,6,46.81s-.35,13,1.5,19.07,5.43,11.71,10.77,15.06S30,85.6,36.44,86.25a121.3,121.3,0,0,0,19.42.53,55.44,55.44,0,0,0,9.52-1.46A35.34,35.34,0,0,0,74.28,82,17,17,0,0,0,81,75.68a23.33,23.33,0,0,0,2.78-8.93,64.32,64.32,0,0,0,.39-9.63,81.94,81.94,0,0,0-.84-9.65c-1-6.36-2.44-12.8-5.57-18.33s-8.29-9.65-14.05-12.39a66.72,66.72,0,0,0-18.52-5.31,35,35,0,0,0-9.51-.36,16.11,16.11,0,0,0-8.46,3.52A30.34,30.34,0,0,0,21,21.77a50,50,0,0,0-4.48,8.51A68,68,0,0,0,11.93,49a64.64,64.64,0,0,0,.48,19.25A33.55,33.55,0,0,0,21.08,85a41.53,41.53,0,0,0,7.34,6.14A48.81,48.81,0,0,0,37,95.46,46.45,46.45,0,0,0,46.25,98a45.17,45.17,0,0,0,9.57.67,28.61,28.61,0,0,0,9.29-1.81,20.37,20.37,0,0,0,7.75-5.17,19,19,0,0,0,4.23-8.25,73,73,0,0,0,1.59-9.54,121.42,121.42,0,0,0,.67-19.44c-.14-3.24-.41-6.48-.82-9.7A94.9,94.9,0,0,0,76.9,35.2a39.23,39.23,0,0,0-3.19-9A24.21,24.21,0,0,0,68,18.73c-4.81-4.13-11.11-6.31-17.45-7a43.31,43.31,0,0,0-9.59.08,27.4,27.4,0,0,0-9.11,2.58,25.87,25.87,0,0,0-7.4,5.84,47.13,47.13,0,0,0-5.61,7.81A50.89,50.89,0,0,0,12.53,46.2a84.73,84.73,0,0,0-.45,19.37,48.46,48.46,0,0,0,1.56,9.49,22,22,0,0,0,4.28,8.35,24.27,24.27,0,0,0,7.51,5.7,47.13,47.13,0,0,0,9,3.35c12.43,3.42,26,3.49,38.12-.95a37.37,37.37,0,0,0,8.59-4.25,24.45,24.45,0,0,0,6.64-6.73,34.36,34.36,0,0,0,5.29-18.19,77.27,77.27,0,0,0-2.35-19.22,51.88,51.88,0,0,0-3-9.18,27.62,27.62,0,0,0-5.18-8,21.48,21.48,0,0,0-3.64-3,22.36,22.36,0,0,0-4.26-2.07A36.85,36.85,0,0,0,65.24,19c-6.42-.52-13-.21-18.95,2.34S35.23,28,30.3,32.22A69.66,69.66,0,0,0,17.45,46.7,61.48,61.48,0,0,0,9.94,64.52c-.42,1.57-.8,3.15-1.15,4.74s-.7,3.17-.9,4.76a19.85,19.85,0,0,0-.12,4.74,9.28,9.28,0,0,0,1.54,4.29c1.75,2.52,5,3.55,8,4.62a49.85,49.85,0,0,0,9.46,2,120.67,120.67,0,0,0,19.49.41c6.49-.26,13.06-.76,19.08-3.11A30.75,30.75,0,0,0,80,74.89a48.08,48.08,0,0,0,6.8-18,78.4,78.4,0,0,0,1.1-9.67,45.92,45.92,0,0,0-.42-9.67,29.19,29.19,0,0,0-8.84-16.77,33,33,0,0,0-17-8.62,37.63,37.63,0,0,0-19.09,1.81,42.31,42.31,0,0,0-8.68,4.31,44.82,44.82,0,0,0-7.47,6.2A51.81,51.81,0,0,0,15.79,40.68,61.92,61.92,0,0,0,11.37,59.6a81.4,81.4,0,0,0,.89,19.47,39.21,39.21,0,0,0,2.54,9.38,24.19,24.19,0,0,0,5.59,7.85,31.5,31.5,0,0,0,17.43,7.94,51,51,0,0,0,19.37-1.33,36.08,36.08,0,0,0,9-3.67,24.17,24.17,0,0,0,7.25-6.4,30.26,30.26,0,0,0,4.24-8.74,93.5,93.5,0,0,0,2.45-9.48,96.23,96.23,0,0,0,2-19.45,91.12,91.12,0,0,0-.5-9.78,44,44,0,0,0-2-9.56,27.82,27.82,0,0,0-2-4.46L77,30.32l-.69-1a23.22,23.22,0,0,0-1.49-1.94,31.46,31.46,0,0,0-7.48-6.26c-5.57-3.45-11.83-5.55-18-7.56,6.21,2,12.48,4.07,18.06,7.51a31.19,31.19,0,0,1,7.52,6.26,21.64,21.64,0,0,1,1.5,1.93l.7,1,.63,1.06a27.16,27.16,0,0,1,2,4.47,43.68,43.68,0,0,1,2.07,9.58,91.66,91.66,0,0,1,.54,9.8,97.47,97.47,0,0,1-1.93,19.5A91.38,91.38,0,0,1,78,84.18,30.71,30.71,0,0,1,73.7,93a24.69,24.69,0,0,1-7.33,6.51,36,36,0,0,1-9.09,3.73,52.9,52.9,0,0,1-9.69,1.64,46.72,46.72,0,0,1-9.82-.24,31.81,31.81,0,0,1-17.71-8,24.44,24.44,0,0,1-5.73-8,39.42,39.42,0,0,1-2.62-9.5,82.52,82.52,0,0,1-1-19.61,62.63,62.63,0,0,1,4.41-19.12A52.52,52.52,0,0,1,25.81,23.94a45.07,45.07,0,0,1,7.58-6.33,43.4,43.4,0,0,1,8.83-4.42,38.45,38.45,0,0,1,19.51-1.9,33.76,33.76,0,0,1,17.49,8.8,30.13,30.13,0,0,1,9.17,17.27,46.71,46.71,0,0,1,.47,9.88A80.52,80.52,0,0,1,87.75,57a48.83,48.83,0,0,1-6.92,18.43A31.88,31.88,0,0,1,65.77,88C59.55,90.47,52.85,91,46.34,91.25a120.94,120.94,0,0,1-19.68-.38A51.09,51.09,0,0,1,17,88.79q-1.18-.37-2.34-.84a23.09,23.09,0,0,1-2.3-1,10.32,10.32,0,0,1-4-3.22A10.43,10.43,0,0,1,6.58,78.9a20.62,20.62,0,0,1,.11-5c.21-1.66.56-3.27.91-4.87s.73-3.21,1.15-4.79A62.45,62.45,0,0,1,16.39,46,70.78,70.78,0,0,1,29.45,31.24c2.48-2.16,5-4.22,7.72-6.15a45.83,45.83,0,0,1,8.6-4.95,33.08,33.08,0,0,1,9.66-2.45,54.79,54.79,0,0,1,9.92,0,37.75,37.75,0,0,1,9.77,1.91,23.56,23.56,0,0,1,4.55,2.2A24,24,0,0,1,83.57,25,29.25,29.25,0,0,1,89,33.36a53.85,53.85,0,0,1,3.11,9.42,78.77,78.77,0,0,1,2.42,19.6,35.75,35.75,0,0,1-5.51,19,25.59,25.59,0,0,1-7,7.15A39,39,0,0,1,73.09,93C60.6,97.54,46.74,97.49,34,94a47.84,47.84,0,0,1-9.33-3.46,25.68,25.68,0,0,1-8-6.07,23.68,23.68,0,0,1-4.63-9,50,50,0,0,1-1.64-9.82A85.9,85.9,0,0,1,10.85,46a52.54,52.54,0,0,1,6.47-18.73,48.43,48.43,0,0,1,5.81-8.09A27.62,27.62,0,0,1,31,12.89a29.24,29.24,0,0,1,9.67-2.75,45,45,0,0,1,10-.09c6.6.68,13.24,2.94,18.41,7.37a26.13,26.13,0,0,1,6.18,8,41.3,41.3,0,0,1,3.33,9.42,96,96,0,0,1,1.68,9.75q.61,4.91.84,9.84a123.71,123.71,0,0,1-.68,19.72,75.44,75.44,0,0,1-1.63,9.79,20.68,20.68,0,0,1-4.64,9,22.16,22.16,0,0,1-8.41,5.63,30.74,30.74,0,0,1-9.86,1.94,50.22,50.22,0,0,1-19.57-3.33,49.88,49.88,0,0,1-8.9-4.5,42.79,42.79,0,0,1-7.67-6.41,35.31,35.31,0,0,1-9.14-17.61,66.53,66.53,0,0,1-.53-19.81,70,70,0,0,1,4.72-19.24,51.89,51.89,0,0,1,4.64-8.82A32.13,32.13,0,0,1,26,13.14a18.13,18.13,0,0,1,9.4-3.92,36.84,36.84,0,0,1,10,.36,68.87,68.87,0,0,1,19,5.46,38.29,38.29,0,0,1,8.44,5.42,29,29,0,0,1,6.45,7.74,40.43,40.43,0,0,1,3.76,9.28,80.56,80.56,0,0,1,2,9.71,83.72,83.72,0,0,1,.86,9.87A66.22,66.22,0,0,1,85.66,67a25.29,25.29,0,0,1-3,9.66,19,19,0,0,1-7.4,7,38,38,0,0,1-9.39,3.55A58.66,58.66,0,0,1,56,88.72a122.77,122.77,0,0,1-19.75-.52,63.45,63.45,0,0,1-9.81-1.67,32.51,32.51,0,0,1-9.27-3.94,25.18,25.18,0,0,1-7.27-7,32.61,32.61,0,0,1-4.33-9.09C3.6,60,3.47,53.21,4,46.65S5.49,33.41,8.42,27.29A30.11,30.11,0,0,1,11,22.93a25.21,25.21,0,0,1,3.46-3.77,25.43,25.43,0,0,1,8.89-4.86c6.47-2.05,13.24-2.07,19.78-1.75s13.28,1.11,19.5,3.76A37.19,37.19,0,0,1,78,28.94a44.53,44.53,0,0,1,7.64,18.35,39,39,0,0,1,.53,10,29,29,0,0,1-2.46,9.79,26.47,26.47,0,0,1-6,8.17,32.21,32.21,0,0,1-8.33,5.64A44.23,44.23,0,0,1,50,84.73a74.51,74.51,0,0,1-9.9-.8,68.78,68.78,0,0,1-9.7-2.12,48.71,48.71,0,0,1-17.62-9.16A36.28,36.28,0,0,1,1.44,56.3a30.65,30.65,0,0,1,.45-19.84A46.31,46.31,0,0,1,12.58,19.72a50.71,50.71,0,0,1,7.58-6.49,22.43,22.43,0,0,1,4.53-2.37,17.15,17.15,0,0,1,5-1,31.55,31.55,0,0,1,10,1.35,70.43,70.43,0,0,1,9.4,3.22,41.24,41.24,0,0,1,8.65,5,59.29,59.29,0,0,1,7.34,6.72A131.91,131.91,0,0,1,77.52,41.44a53.64,53.64,0,0,1,8.14,18.08,37.13,37.13,0,0,1,.89,10,15.41,15.41,0,0,1-1,5.08,8.7,8.7,0,0,1-3.44,4.11,14.69,14.69,0,0,1-4.85,1.85,33.92,33.92,0,0,1-5,.65,56,56,0,0,1-10-.41A134,134,0,0,1,43,76.91a111.37,111.37,0,0,1-18.54-6.8c-5.92-2.91-11.58-6.74-15.77-12a31.94,31.94,0,0,1-5-8.72,25.3,25.3,0,0,1-1.63-10,26.1,26.1,0,0,1,8.76-17.72A31.18,31.18,0,0,1,29,13.89a42.87,42.87,0,0,1,19.61,2.89,64.85,64.85,0,0,1,17,10.1A81.78,81.78,0,0,1,79.54,41a54.23,54.23,0,0,1,9.06,17.6,13.08,13.08,0,0,1,.65,5.15,6.14,6.14,0,0,1-.94,2.62,7.06,7.06,0,0,1-2,1.94,17.54,17.54,0,0,1-4.69,2L79.31,71l-2.38.66a114.08,114.08,0,0,1-19.41,3.45,133.68,133.68,0,0,1-19.71.29c-3.28-.21-6.54-.46-9.82-.94a32.65,32.65,0,0,1-9.6-2.76,19.86,19.86,0,0,1-4.25-2.79,21.61,21.61,0,0,1-3.37-3.78,35.47,35.47,0,0,1-4.4-8.95A39,39,0,0,1,4.46,36.55a27.74,27.74,0,0,1,9.94-17,25.85,25.85,0,0,1,9-4.36,46.21,46.21,0,0,1,9.82-1.44c3.3-.16,6.58-.12,9.85-.06a90.68,90.68,0,0,1,9.86.57,37.28,37.28,0,0,1,9.65,2.39,34.52,34.52,0,0,1,8.54,5.1,65.67,65.67,0,0,1,13,14.83,50.8,50.8,0,0,1,4.78,8.68,30.49,30.49,0,0,1,2.41,9.65A23,23,0,0,1,90,64.82a18.69,18.69,0,0,1-2.42,4.43,21.76,21.76,0,0,1-3.47,3.64,41.59,41.59,0,0,1-8.4,5.28,74.48,74.48,0,0,1-9.14,3.72c-3.12,1-6.28,1.94-9.46,2.74a63.81,63.81,0,0,1-9.74,1.7,35.07,35.07,0,0,1-9.91-.48,36.27,36.27,0,0,1-4.8-1.32,40,40,0,0,1-4.55-2A36.63,36.63,0,0,1,13.81,69a40.86,40.86,0,0,1-5.73-18.8,55.6,55.6,0,0,1,2.79-19.47c1-3.15,2.07-6.23,3.33-9.27s2.95-6.06,5.68-8.13a12.22,12.22,0,0,1,4.56-2.13,23.69,23.69,0,0,1,4.94-.62,60,60,0,0,1,9.85.57,80.85,80.85,0,0,1,19,5.22c12.14,4.88,23.52,12.11,32.27,22a63.91,63.91,0,0,1,5.91,7.87A54.31,54.31,0,0,1,100.83,55a22,22,0,0,1,2.06,9.62,9.91,9.91,0,0,1-1.47,4.75,11.63,11.63,0,0,1-3.59,3.43A66.74,66.74,0,0,1,60.17,82c-1.64,0-3.27-.25-4.9-.4l-2.43-.36a24.49,24.49,0,0,1-2.42-.43A64.81,64.81,0,0,1,41,78.23,49,49,0,0,1,24.14,68.3a31.88,31.88,0,0,1-9.71-16.75,25.09,25.09,0,0,1-.56-4.88,22.35,22.35,0,0,1,.37-4.9,25.11,25.11,0,0,1,3.63-9.07,44.23,44.23,0,0,1,6.21-7.57,62,62,0,0,1,7.4-6.43,26,26,0,0,1,8.79-4.24A16.45,16.45,0,0,1,49.92,14.84Z"/>
    </g>
  </g>
</svg>
