<svg xmlns="http://www.w3.org/2000/svg" xmlns:xlink="http://www.w3.org/1999/xlink" viewBox="0 0 98.81 81.39">
  <defs>
    <radialGradient id="radial-gradient" cx="49.4" cy="40.7" r="40.7" gradientUnits="userSpaceOnUse">
      <stop offset="0" stop-color="#2ea965"/>
      <stop offset="0.3" stop-color="#30aa63" stop-opacity="0.98"/>
      <stop offset="0.47" stop-color="#37ac5d" stop-opacity="0.93"/>
      <stop offset="0.61" stop-color="#43b152" stop-opacity="0.85"/>
      <stop offset="0.73" stop-color="#54b842" stop-opacity="0.72"/>
      <stop offset="0.83" stop-color="#6bc02e" stop-opacity="0.56"/>
      <stop offset="0.93" stop-color="#86ca15" stop-opacity="0.37"/>
      <stop offset="1" stop-color="#9dd300" stop-opacity="0.2"/>
    </radialGradient>
  </defs>
  <title>wilson</title>
  <g id="Layer_2" data-name="Layer 2">
    <g id="Layer_1-2" data-name="Layer 1">
      <path d="M98.71,46.35l-2.06,8.4c.36-1.47-.29-3.14-1.81-4.89A33.44,33.44,0,0,0,86,43.23c-1.39-.79-2.92-1.58-4.54-2.36-.44-.22-.88-.42-1.33-.63q-2-.91-4.11-1.8c-.43-.19-.88-.37-1.34-.56s-1.07-.43-1.63-.63c-.8-.33-1.61-.62-2.44-.93-.64-.24-1.29-.47-2-.7s-1.14-.41-1.72-.6l-1.25-.42L64,34.06c-.71-.23-1.41-.46-2.14-.68-1-.31-2.08-.62-3.13-.92-.79-.24-1.59-.46-2.4-.67-1.61-.44-3.26-.87-4.93-1.28s-3.32-.79-5-1.14c-.81-.19-1.63-.36-2.44-.52-1.12-.23-2.23-.44-3.31-.64-.72-.13-1.42-.26-2.11-.37s-1.13-.19-1.68-.29l-1.45-.22c-.57-.1-1.15-.19-1.72-.25s-1.32-.19-2-.27c-.91-.13-1.8-.23-2.67-.32l-1.74-.18c-2.06-.2-4-.34-5.91-.44-.49,0-1,0-1.48,0-1.8-.07-3.51-.07-5.11,0A33.58,33.58,0,0,0,3.87,27.59c-2.16.86-3.51,2-3.86,3.5l2.05-8.4c1.68-6.86,24.68-7.13,51.36-.59S100.39,39.49,98.71,46.35Z" style="fill: #7aece9;opacity: 0.4"/>
      <path d="M89.3,12.53,93.82,20c-.79-1.3-2.44-2-4.78-2.19A33.7,33.7,0,0,0,78,19.4c-1.56.42-3.21,1-4.92,1.56-.47.15-.93.32-1.39.49-1.37.5-2.77,1-4.21,1.65-.45.17-.9.36-1.36.56s-1.07.45-1.61.7c-.8.34-1.59.71-2.4,1.09l-1.89.88c-.54.25-1.1.53-1.65.8l-1.2.59-1.57.81c-.67.34-1.34.68-2,1-1,.51-1.93,1-2.89,1.58q-1.1.59-2.19,1.23c-1.46.84-2.94,1.7-4.42,2.6s-2.93,1.81-4.34,2.71c-.71.45-1.42.91-2.11,1.38-1,.63-1.9,1.27-2.81,1.9-.6.41-1.2.82-1.77,1.24s-.94.66-1.4,1l-1.19.87c-.48.34-.95.69-1.4,1s-1.08.82-1.6,1.21c-.74.57-1.45,1.13-2.13,1.69-.47.36-.93.74-1.37,1.1C22.56,50.44,21,51.75,19.64,53c-.36.33-.73.67-1.08,1q-2,1.88-3.65,3.64a33.79,33.79,0,0,0-6.54,9.06c-.93,2.15-1,4-.26,5.25L3.59,64.54c-3.69-6.09,12.51-22.67,36.16-37S85.61,6.44,89.3,12.53Z" style="fill: #7ae980;opacity: 0.4"/>
      <path d="M80.48,40.69a32.54,32.54,0,0,1-.17,3.3,29.5,29.5,0,0,1-.53,3.28,31,31,0,0,1-3.86,9.64q-.4.66-.84,1.29A31.1,31.1,0,0,1,71,63.08l0,0,0,0-.59.54a31.06,31.06,0,0,1-48.43-8.64A30,30,0,0,1,20,50.71l-.06-.16a31.57,31.57,0,0,1-1.1-4.28c-.11-.62-.21-1.25-.28-1.88a32.25,32.25,0,0,1-.22-3.7,31.89,31.89,0,0,1,.28-4.18,30.64,30.64,0,0,1,1.51-6.23,30.19,30.19,0,0,1,1.66-3.82A31.05,31.05,0,0,1,47.54,9.67q.93-.06,1.86-.06a30.13,30.13,0,0,1,4.78.37,31,31,0,0,1,26.3,30.71Z" style="fill: #99cd49"/>
      <path d="M80.48,40.69a32.54,32.54,0,0,1-.17,3.3,29.5,29.5,0,0,1-.53,3.28,31,31,0,0,1-3.86,9.64q-.4.66-.84,1.29A31.1,31.1,0,0,1,71,63.08c7.65-7.86,8-22.39,8-22.39-.83-14.58-9.81-15.3-16.62-13.36-7,2-7.54,11.25-6.71,14.46s3.35,4,5.49,3.33a1.74,1.74,0,0,0,.4-3.27l-.13-.06c-1.22-.4-1-1.88-1-1.88.27-1.6,1.33-1.44,1.33-1.44,1.55-.22,4.26,1.33,4.1,5.71S61.31,50,61.31,50c-10.2,3.46-15.54-10.35-15.54-10.35C40,24.3,47.37,10,47.54,9.67q.93-.06,1.86-.06a27.5,27.5,0,0,1,2.88.14c.23,0,.46,0,.69.07.41,0,.81.1,1.21.16a31,31,0,0,1,26.3,30.71Z" style="fill: #3be191"/>
      <path d="M72.25,45.76a27.18,27.18,0,0,1-7.56,16.71C59,68.16,41.25,72.72,31.19,65.16,22.13,58.36,20.37,51.72,20,50.71l-.06-.16a31.57,31.57,0,0,1-1.1-4.28c-.11-.62-.21-1.25-.28-1.88a32.25,32.25,0,0,1-.22-3.7,31.89,31.89,0,0,1,.28-4.18,30.64,30.64,0,0,1,1.51-6.23,30.19,30.19,0,0,1,1.66-3.82A31.05,31.05,0,0,1,47.54,9.67c-.17.32-7.56,14.63-1.77,30,0,0,5.34,13.81,15.54,10.35,0,0,4.32-1.47,4.49-5.85s-2.55-5.93-4.1-5.71c0,0-1.06-.16-1.33,1.44,0,0-.23,1.48,1,1.88l.13.06a.47.47,0,0,1,.2.62.52.52,0,0,1-.72.3s-2.38-.43-2.56-2.53-.37-4.43,4.12-4.87S72.48,39.14,72.25,45.76Z" style="fill: #10569a"/>
      <path d="M98.8,46l-2,8.4c-1.68,6.85-24.68,7.11-51.37.58S-1.58,37.57.1,30.72l2.05-8.4c-.36,1.47.29,3.14,1.81,4.9,5.53,6.42,22.53,14.21,43.47,19.34s39.64,6.07,47.5,2.92C97.09,48.63,98.44,47.44,98.8,46Z" style="fill: #7aece9;opacity: 0.4"/>
      <path d="M89.21,12.37l4.52,7.45c3.69,6.07-12.51,22.65-36.18,37S11.71,77.89,8,71.82L3.5,64.37c.79,1.3,2.44,2,4.78,2.2,8.51.64,26.17-5.92,44.75-17.19S85.59,25.47,89,17.62C89.88,15.47,90,13.67,89.21,12.37Z" style="fill: #7ae980;opacity: 0.4"/>
      <g style="opacity: 0.2">
        <path d="M90.1,40.69a40.7,40.7,0,1,1-81.4,0c0-.48,0-.95,0-1.42h0A40.7,40.7,0,0,1,89.81,35.8,39.4,39.4,0,0,1,90.1,40.69Z" style="fill: url(#radial-gradient)"/>
      </g>
    </g>
  </g>
</svg>
